<?xml version="1.0" standalone="no"?>
<!DOCTYPE svg PUBLIC "-//W3C//DTD SVG 20010904//EN"
 "http://www.w3.org/TR/2001/REC-SVG-20010904/DTD/svg10.dtd">
<svg version="1.0" xmlns="http://www.w3.org/2000/svg"
 width="1280.000000pt" height="1280.000000pt" viewBox="0 0 1280.000000 1280.000000"
 preserveAspectRatio="xMidYMid meet">
<metadata>
Created by potrace 1.14, written by Peter Selinger 2001-2017
</metadata>
<g transform="translate(0.000000,1280.000000) scale(0.100000,-0.100000)"
fill="#000000" stroke="none">
<path d="M6148 11315 c-2 -1 -56 -6 -120 -9 -65 -4 -128 -9 -140 -11 -13 -3
-43 -7 -68 -10 -123 -15 -159 -20 -205 -29 -11 -2 -42 -7 -70 -10 -84 -12
-275 -54 -411 -92 -71 -19 -138 -37 -150 -40 -39 -7 -312 -103 -420 -147 -736
-298 -1394 -771 -1895 -1359 -39 -46 -82 -96 -96 -113 -14 -16 -58 -73 -98
-125 -258 -341 -485 -741 -639 -1129 -42 -105 -97 -251 -101 -271 -2 -8 -13
-42 -24 -75 -12 -32 -23 -68 -26 -80 -3 -11 -16 -60 -30 -110 -21 -75 -65
-260 -81 -340 -9 -44 -26 -141 -29 -160 -1 -11 -8 -56 -14 -100 -21 -139 -23
-164 -41 -380 -8 -101 -5 -631 4 -715 2 -25 8 -74 12 -110 3 -36 8 -78 9 -95
2 -27 20 -149 30 -215 17 -101 60 -300 94 -430 36 -143 118 -407 140 -455 5
-11 28 -68 50 -126 133 -348 345 -735 583 -1063 280 -385 651 -766 1003 -1028
28 -21 55 -41 60 -45 219 -173 637 -414 977 -564 330 -145 819 -287 1153 -333
22 -4 51 -8 65 -11 38 -7 89 -13 225 -30 248 -30 859 -25 1090 9 17 3 53 8 80
11 47 7 290 48 345 59 14 3 37 7 52 10 68 12 420 111 540 152 115 40 257 94
323 124 11 5 45 20 75 33 476 212 935 511 1305 851 380 349 683 721 937 1151
121 205 243 452 318 646 23 57 45 113 50 124 32 67 157 482 185 613 21 100 44
215 49 247 3 22 10 65 15 95 10 52 14 88 27 205 3 28 7 57 9 65 19 68 27 678
12 855 -4 50 -10 117 -12 150 -3 33 -10 89 -15 125 -5 36 -11 79 -14 95 -13
87 -19 126 -31 190 -8 39 -16 84 -20 100 -28 154 -152 589 -194 680 -5 11 -24
58 -41 105 -282 744 -814 1475 -1455 2002 -167 137 -424 319 -575 407 -30 18
-84 50 -120 72 -201 121 -609 302 -885 392 -137 46 -402 118 -485 133 -14 3
-56 11 -95 19 -64 12 -156 28 -335 55 -36 5 -101 12 -145 16 -44 3 -93 8 -110
10 -32 6 -622 14 -627 9z"/>
</g>
</svg>
